<svg width="800" height="600" viewBox="0 0 800 600" xmlns="http://www.w3.org/2000/svg">
  <!-- メインメニューの背景 -->
  <defs>
    <radialGradient id="menuBg" cx="50%" cy="50%">
      <stop offset="0%" stop-color="#8B5CF6"/>
      <stop offset="100%" stop-color="#6B46C1"/>
    </radialGradient>
    <pattern id="circuit" patternUnits="userSpaceOnUse" width="100" height="100">
      <rect width="100" height="100" fill="none"/>
      <g stroke="#FFFFFF" stroke-width="1" opacity="0.1" fill="none">
        <path d="M20,20 L80,20 L80,80 L20,80 Z"/>
        <circle cx="20" cy="20" r="3"/>
        <circle cx="80" cy="20" r="3"/>
        <circle cx="80" cy="80" r="3"/>
        <circle cx="20" cy="80" r="3"/>
        <line x1="50" y1="20" x2="50" y2="80"/>
        <line x1="20" y1="50" x2="80" y2="50"/>
      </g>
    </pattern>
  </defs>
  
  <!-- メイングラデーション背景 -->
  <rect width="800" height="600" fill="url(#menuBg)"/>
  
  <!-- 回路パターン -->
  <rect width="800" height="600" fill="url(#circuit)"/>
  
  <!-- DXCブランドの装飾的な要素 -->
  <g opacity="0.3">
    <!-- 大きな円形パターン -->
    <circle cx="150" cy="150" r="80" fill="none" stroke="#FFFFFF" stroke-width="2"/>
    <circle cx="650" cy="450" r="60" fill="none" stroke="#FFFFFF" stroke-width="2"/>
    
    <!-- 六角形パターン -->
    <g transform="translate(600, 150)">
      <path d="M0,-40 L35,-20 L35,20 L0,40 L-35,20 L-35,-20 Z" 
            fill="none" stroke="#FFFFFF" stroke-width="2"/>
    </g>
    
    <!-- 小さなIT関連アイコン -->
    <g fill="#FFFFFF" opacity="0.2">
      <rect x="100" y="400" width="20" height="15" rx="2"/>
      <rect x="102" y="402" width="16" height="10" rx="1"/>
      
      <circle cx="700" cy="100" r="15"/>
      <rect x="690" y="95" width="20" height="2"/>
      <rect x="690" y="98" width="20" height="2"/>
      <rect x="690" y="101" width="20" height="2"/>
    </g>
  </g>
  
  <!-- 中央のロゴエリア（薄い白い円） -->
  <circle cx="400" cy="300" r="120" fill="#FFFFFF" opacity="0.1"/>
  
  <!-- キラキラエフェクト -->
  <g fill="#FFFFFF" opacity="0.6">
    <g transform="translate(200, 100)">
      <path d="M0,-8 L2,0 L0,8 L-2,0 Z">
        <animateTransform attributeName="transform" type="rotate" values="0 0 0;360 0 0" dur="4s" repeatCount="indefinite"/>
      </path>
    </g>
    <g transform="translate(600, 500)">
      <path d="M0,-6 L1.5,0 L0,6 L-1.5,0 Z">
        <animateTransform attributeName="transform" type="rotate" values="0 0 0;360 0 0" dur="3s" repeatCount="indefinite"/>
      </path>
    </g>
    <g transform="translate(700, 200)">
      <path d="M0,-10 L2.5,0 L0,10 L-2.5,0 Z">
        <animateTransform attributeName="transform" type="rotate" values="0 0 0;360 0 0" dur="5s" repeatCount="indefinite"/>
      </path>
    </g>
  </g>
</svg>
