<svg width="64" height="64" viewBox="0 0 64 64" xmlns="http://www.w3.org/2000/svg">
  <!-- DXC IT守護者 - 被ダメージ状態 -->
  <defs>
    <radialGradient id="damagedBodyGradient" cx="0.3" cy="0.3">
      <stop offset="0%" stop-color="#A855F7"/>
      <stop offset="100%" stop-color="#7C3AED"/>
    </radialGradient>
    <filter id="shadow">
      <feDropShadow dx="1" dy="1" stdDeviation="2" flood-color="#000" flood-opacity="0.3"/>
    </filter>
  </defs>
  
  <!-- 壊れたシールド（背景） -->
  <path d="M32,8 L42,15 L42,30 L32,40 L22,30 L22,15 Z" 
        fill="#FFE4E1" stroke="#EF4444" stroke-width="2" opacity="0.7" filter="url(#shadow)"/>
  <!-- シールドのヒビ -->
  <path d="M25,20 L35,25 M30,15 L30,35" stroke="#EF4444" stroke-width="1" opacity="0.8"/>
  
  <!-- メインボディ（少し傾いている） -->
  <circle cx="31" cy="33" r="20" fill="url(#damagedBodyGradient)" filter="url(#shadow)" transform="rotate(-5 31 33)"/>
  
  <!-- 顔の輪郭（困った表情） -->
  <ellipse cx="31" cy="31" rx="12" ry="11" fill="#FFFFFF" opacity="0.9" transform="rotate(-5 31 31)"/>
  
  <!-- 目（困った感じ） -->
  <ellipse cx="27" cy="28" rx="3" ry="2.5" fill="#000000" transform="rotate(-10 27 28)"/>
  <ellipse cx="35" cy="28" rx="3" ry="2.5" fill="#000000" transform="rotate(-10 35 28)"/>
  
  <!-- 瞳のハイライト -->
  <circle cx="28" cy="27" r="1" fill="#FFFFFF"/>
  <circle cx="36" cy="27" r="1" fill="#FFFFFF"/>
  
  <!-- 口（「やられた！」という表情） -->
  <ellipse cx="31" cy="33" rx="3" ry="2" fill="#000000"/>
  
  <!-- 守護者のマーク（少し傷ついている） -->
  <circle cx="31" cy="43" r="6" fill="#FFE4E1" opacity="0.8"/>
  <path d="M31,39 L34,42 L34,48 L31,51 L28,48 L28,42 Z" 
        fill="#7C3AED"/>
  
  <!-- 腕（防御失敗のポーズ） -->
  <ellipse cx="19" cy="39" rx="3" ry="8" fill="url(#damagedBodyGradient)" transform="rotate(-30 19 39)"/>
  <ellipse cx="43" cy="39" rx="3" ry="8" fill="url(#damagedBodyGradient)" transform="rotate(30 43 39)"/>
  
  <!-- 星やバツ印（ダメージエフェクト） -->
  <g opacity="0.7">
    <path d="M20,20 L22,18 L24,20 L26,18 L24,22 L22,24 L20,22 L18,24 Z" fill="#F59E0B">
      <animateTransform attributeName="transform" type="rotate" values="0 22 21;360 22 21" dur="1s" repeatCount="indefinite"/>
    </path>
    <path d="M44,25 L46,23 L48,25 L46,27 Z M44,27 L46,25 L48,27 L46,29 Z" stroke="#EF4444" stroke-width="2" fill="none">
      <animateTransform attributeName="transform" type="rotate" values="0 46 26;-360 46 26" dur="1.2s" repeatCount="indefinite"/>
    </path>
  </g>
</svg>
