<svg width="64" height="64" viewBox="0 0 64 64" xmlns="http://www.w3.org/2000/svg">
  <!-- DXC IT守護者 - 勝利状態 -->
  <defs>
    <radialGradient id="victoryBodyGradient" cx="0.3" cy="0.3">
      <stop offset="0%" stop-color="#A78BFA"/>
      <stop offset="100%" stop-color="#6B46C1"/>
    </radialGradient>
    <filter id="victoryGlow">
      <feGaussianBlur stdDeviation="2" result="coloredBlur"/>
      <feMerge> 
        <feMergeNode in="coloredBlur"/>
        <feMergeNode in="SourceGraphic"/>
      </feMerge>
    </filter>
    <filter id="shadow">
      <feDropShadow dx="1" dy="1" stdDeviation="2" flood-color="#000" flood-opacity="0.3"/>
    </filter>
  </defs>
  
  <!-- 輝くシールド（背景） -->
  <path d="M32,8 L42,15 L42,30 L32,40 L22,30 L22,15 Z" 
        fill="#F0FDF4" stroke="#10B981" stroke-width="3" opacity="0.9" filter="url(#victoryGlow)"/>
  
  <!-- メインボディ（勝利のポーズ） -->
  <circle cx="32" cy="32" r="20" fill="url(#victoryBodyGradient)" filter="url(#victoryGlow)"/>
  
  <!-- 顔の輪郭（嬉しそう） -->
  <circle cx="32" cy="30" r="12" fill="#FFFFFF" opacity="0.95"/>
  
  <!-- 目（嬉しい目） -->
  <path d="M25,25 Q28,22 31,25" stroke="#000000" stroke-width="2" fill="none" stroke-linecap="round"/>
  <path d="M33,25 Q36,22 39,25" stroke="#000000" stroke-width="2" fill="none" stroke-linecap="round"/>
  
  <!-- 口（大きな笑顔） -->
  <path d="M 26 33 Q 32 38 38 33" 
        stroke="#000000" stroke-width="3" fill="none" stroke-linecap="round"/>
  
  <!-- 守護者のマーク（輝いている） -->
  <circle cx="32" cy="42" r="7" fill="#F0FDF4" opacity="0.9" filter="url(#victoryGlow)"/>
  <path d="M32,37 L36,41 L36,48 L32,52 L28,48 L28,41 Z" 
        fill="#10B981"/>
  <!-- マークの上にチェック -->
  <path d="M30,43 L32,45 L35,41" stroke="#FFFFFF" stroke-width="2" fill="none" stroke-linecap="round"/>
  
  <!-- 腕（シールドを高く掲げている） -->
  <ellipse cx="18" cy="28" rx="3" ry="10" fill="url(#victoryBodyGradient)" transform="rotate(-45 18 28)"/>
  <ellipse cx="46" cy="35" rx="3" ry="8" fill="url(#victoryBodyGradient)" transform="rotate(30 46 35)"/>
  
  <!-- 高く掲げられたシールド -->
  <ellipse cx="15" cy="20" rx="5" ry="8" fill="#F0FDF4" stroke="#10B981" stroke-width="2" 
           transform="rotate(-45 15 20)" filter="url(#victoryGlow)"/>
  
  <!-- 勝利のキラキラエフェクト -->
  <g opacity="0.8">
    <path d="M45,15 L47,12 L49,15 L52,13 L50,17 L49,21 L47,17 L44,19 Z" fill="#F59E0B">
      <animateTransform attributeName="transform" type="rotate" values="0 47 16;360 47 16" dur="2s" repeatCount="indefinite"/>
    </path>
    <path d="M20,50 L22,47 L24,50 L27,48 L25,52 L24,56 L22,52 L19,54 Z" fill="#10B981">
      <animateTransform attributeName="transform" type="rotate" values="0 22 51;360 22 51" dur="1.5s" repeatCount="indefinite"/>
    </path>
    <path d="M50,45 L52,42 L54,45 L57,43 L55,47 L54,51 L52,47 L49,49 Z" fill="#8B5CF6">
      <animateTransform attributeName="transform" type="rotate" values="0 52 46;360 52 46" dur="1.8s" repeatCount="indefinite"/>
    </path>
  </g>
</svg>
